<?xml version="1.0" encoding="UTF-8"?>
<svg xmlns="http://www.w3.org/2000/svg" xmlns:xlink="http://www.w3.org/1999/xlink" width="842pt" height="595pt" viewBox="0 0 842 595" version="1.1">
<g id="surface1">
<path style="fill-rule:nonzero;fill:rgb(57.254028%,57.254028%,44.7052%);fill-opacity:1;stroke-width:2;stroke-linecap:butt;stroke-linejoin:miter;stroke:rgb(57.254028%,57.254028%,44.7052%);stroke-opacity:1;stroke-miterlimit:10;" d="M 7522.005208 7467.96875 L 8252.018229 6955.013021 L 6414.973958 6955.013021 Z M 7522.005208 7467.96875 " transform="matrix(0.06,0,0,-0.06,0,595)"/>
<path style="fill-rule:nonzero;fill:rgb(57.254028%,57.254028%,44.7052%);fill-opacity:1;stroke-width:2;stroke-linecap:butt;stroke-linejoin:miter;stroke:rgb(57.254028%,57.254028%,44.7052%);stroke-opacity:1;stroke-miterlimit:10;" d="M 8252.018229 6955.013021 L 6414.973958 6955.013021 L 8374.023437 6869.986979 Z M 6414.973958 6955.013021 L 8374.023437 6869.986979 L 6230.989583 6869.986979 Z M 6414.973958 6955.013021 " transform="matrix(0.06,0,0,-0.06,0,595)"/>
<path style="fill-rule:nonzero;fill:rgb(57.254028%,57.254028%,44.7052%);fill-opacity:1;stroke-width:2;stroke-linecap:butt;stroke-linejoin:miter;stroke:rgb(57.254028%,57.254028%,44.7052%);stroke-opacity:1;stroke-miterlimit:10;" d="M 8374.023437 6869.986979 L 6230.989583 6869.986979 L 8069.986979 6671.028646 Z M 6230.989583 6869.986979 L 8069.986979 6671.028646 L 5800.976562 6671.028646 Z M 6230.989583 6869.986979 " transform="matrix(0.06,0,0,-0.06,0,595)"/>
<path style="fill-rule:nonzero;fill:rgb(57.254028%,57.254028%,44.7052%);fill-opacity:1;stroke-width:2;stroke-linecap:butt;stroke-linejoin:miter;stroke:rgb(57.254028%,57.254028%,44.7052%);stroke-opacity:1;stroke-miterlimit:10;" d="M 8069.986979 6671.028646 L 5800.976562 6671.028646 L 8041.015625 6628.971354 Z M 5800.976562 6671.028646 L 8041.015625 6628.971354 L 5711.002604 6628.971354 Z M 5800.976562 6671.028646 " transform="matrix(0.06,0,0,-0.06,0,595)"/>
<path style="fill-rule:nonzero;fill:rgb(57.254028%,57.254028%,44.7052%);fill-opacity:1;stroke-width:2;stroke-linecap:butt;stroke-linejoin:miter;stroke:rgb(57.254028%,57.254028%,44.7052%);stroke-opacity:1;stroke-miterlimit:10;" d="M 8041.015625 6628.971354 L 5711.002604 6628.971354 L 7703.971354 6130.989583 Z M 5711.002604 6628.971354 L 7703.971354 6130.989583 L 5594.986979 6130.989583 Z M 5711.002604 6628.971354 " transform="matrix(0.06,0,0,-0.06,0,595)"/>
<path style="fill-rule:nonzero;fill:rgb(57.254028%,57.254028%,44.7052%);fill-opacity:1;stroke-width:2;stroke-linecap:butt;stroke-linejoin:miter;stroke:rgb(57.254028%,57.254028%,44.7052%);stroke-opacity:1;stroke-miterlimit:10;" d="M 7703.971354 6130.989583 L 5594.986979 6130.989583 L 7642.96875 6041.992188 Z M 5594.986979 6130.989583 L 7642.96875 6041.992188 L 5574.023437 6041.992188 Z M 5594.986979 6130.989583 " transform="matrix(0.06,0,0,-0.06,0,595)"/>
<path style="fill-rule:nonzero;fill:rgb(57.254028%,57.254028%,44.7052%);fill-opacity:1;stroke-width:2;stroke-linecap:butt;stroke-linejoin:miter;stroke:rgb(57.254028%,57.254028%,44.7052%);stroke-opacity:1;stroke-miterlimit:10;" d="M 7642.96875 6041.992188 L 5574.023437 6041.992188 L 7416.015625 5705.989583 Z M 5574.023437 6041.992188 L 7416.015625 5705.989583 L 5352.018229 5705.989583 Z M 5574.023437 6041.992188 " transform="matrix(0.06,0,0,-0.06,0,595)"/>
<path style="fill-rule:nonzero;fill:rgb(57.254028%,57.254028%,44.7052%);fill-opacity:1;stroke-width:2;stroke-linecap:butt;stroke-linejoin:miter;stroke:rgb(57.254028%,57.254028%,44.7052%);stroke-opacity:1;stroke-miterlimit:10;" d="M 7416.015625 5705.989583 L 5352.018229 5705.989583 L 7317.96875 5561.002604 Z M 5352.018229 5705.989583 L 7317.96875 5561.002604 L 4232.03125 5561.002604 Z M 5352.018229 5705.989583 " transform="matrix(0.06,0,0,-0.06,0,595)"/>
<path style="fill-rule:nonzero;fill:rgb(57.254028%,57.254028%,44.7052%);fill-opacity:1;stroke-width:2;stroke-linecap:butt;stroke-linejoin:miter;stroke:rgb(57.254028%,57.254028%,44.7052%);stroke-opacity:1;stroke-miterlimit:10;" d="M 7317.96875 5561.002604 L 4232.03125 5561.002604 L 7308.984375 5547.981771 Z M 4232.03125 5561.002604 L 7308.984375 5547.981771 L 4227.018229 5547.981771 Z M 4232.03125 5561.002604 " transform="matrix(0.06,0,0,-0.06,0,595)"/>
<path style="fill-rule:nonzero;fill:rgb(57.254028%,57.254028%,44.7052%);fill-opacity:1;stroke-width:2;stroke-linecap:butt;stroke-linejoin:miter;stroke:rgb(57.254028%,57.254028%,44.7052%);stroke-opacity:1;stroke-miterlimit:10;" d="M 6725 5547.981771 L 4227.018229 5547.981771 L 6261.002604 5014.973958 Z M 4227.018229 5547.981771 L 6261.002604 5014.973958 L 4038.020833 5014.973958 Z M 4227.018229 5547.981771 " transform="matrix(0.06,0,0,-0.06,0,595)"/>
<path style="fill-rule:nonzero;fill:rgb(57.254028%,57.254028%,44.7052%);fill-opacity:1;stroke-width:2;stroke-linecap:butt;stroke-linejoin:miter;stroke:rgb(57.254028%,57.254028%,44.7052%);stroke-opacity:1;stroke-miterlimit:10;" d="M 6261.002604 5014.973958 L 4038.020833 5014.973958 L 5130.013021 4791.992188 Z M 4038.020833 5014.973958 L 5130.013021 4791.992188 L 3958.984375 4791.992188 Z M 4038.020833 5014.973958 " transform="matrix(0.06,0,0,-0.06,0,595)"/>
<path style="fill-rule:nonzero;fill:rgb(57.254028%,57.254028%,44.7052%);fill-opacity:1;stroke-width:2;stroke-linecap:butt;stroke-linejoin:miter;stroke:rgb(57.254028%,57.254028%,44.7052%);stroke-opacity:1;stroke-miterlimit:10;" d="M 5130.013021 4791.992188 L 3958.984375 4791.992188 L 5130.013021 4452.018229 Z M 3958.984375 4791.992188 L 5130.013021 4452.018229 L 3838.997396 4452.018229 Z M 3958.984375 4791.992188 " transform="matrix(0.06,0,0,-0.06,0,595)"/>
<path style="fill-rule:nonzero;fill:rgb(57.254028%,57.254028%,44.7052%);fill-opacity:1;stroke-width:2;stroke-linecap:butt;stroke-linejoin:miter;stroke:rgb(57.254028%,57.254028%,44.7052%);stroke-opacity:1;stroke-miterlimit:10;" d="M 3838.997396 4452.018229 L 4085.026042 4222.005208 L 5130.013021 4222.005208 Z M 4085.026042 4222.005208 L 5130.013021 4222.005208 L 4624.023437 3717.96875 Z M 4085.026042 4222.005208 " transform="matrix(0.06,0,0,-0.06,0,595)"/>
<path style="fill-rule:nonzero;fill:rgb(57.254028%,57.254028%,44.7052%);fill-opacity:1;stroke-width:2;stroke-linecap:butt;stroke-linejoin:miter;stroke:rgb(57.254028%,57.254028%,44.7052%);stroke-opacity:1;stroke-miterlimit:10;" d="M 3838.997396 4452.018229 L 5130.013021 4452.018229 L 5130.013021 4222.005208 Z M 3838.997396 4452.018229 " transform="matrix(0.06,0,0,-0.06,0,595)"/>
<path style="fill:none;stroke-width:2;stroke-linecap:butt;stroke-linejoin:miter;stroke:rgb(78.430176%,78.430176%,71.763611%);stroke-opacity:1;stroke-miterlimit:10;" d="M 8374.023437 6869.986979 L 8372.981771 6869.986979 Z M 8374.023437 6869.986979 " transform="matrix(0.06,0,0,-0.06,0,595)"/>
<path style="fill-rule:nonzero;fill:rgb(78.430176%,78.430176%,71.763611%);fill-opacity:1;stroke-width:2;stroke-linecap:butt;stroke-linejoin:miter;stroke:rgb(78.430176%,78.430176%,71.763611%);stroke-opacity:1;stroke-miterlimit:10;" d="M 8374.023437 6869.986979 L 8372.981771 6869.986979 L 8503.971354 6671.028646 Z M 8372.981771 6869.986979 L 8503.971354 6671.028646 L 8069.986979 6671.028646 Z M 8372.981771 6869.986979 " transform="matrix(0.06,0,0,-0.06,0,595)"/>
<path style="fill-rule:nonzero;fill:rgb(78.430176%,78.430176%,71.763611%);fill-opacity:1;stroke-width:2;stroke-linecap:butt;stroke-linejoin:miter;stroke:rgb(78.430176%,78.430176%,71.763611%);stroke-opacity:1;stroke-miterlimit:10;" d="M 8503.971354 6671.028646 L 8069.986979 6671.028646 L 8857.03125 6130.989583 Z M 8069.986979 6671.028646 L 8857.03125 6130.989583 L 7703.971354 6130.989583 Z M 8069.986979 6671.028646 " transform="matrix(0.06,0,0,-0.06,0,595)"/>
<path style="fill-rule:nonzero;fill:rgb(78.430176%,78.430176%,71.763611%);fill-opacity:1;stroke-width:2;stroke-linecap:butt;stroke-linejoin:miter;stroke:rgb(78.430176%,78.430176%,71.763611%);stroke-opacity:1;stroke-miterlimit:10;" d="M 8857.03125 6130.989583 L 7703.971354 6130.989583 L 8924.023437 6027.994792 Z M 7703.971354 6130.989583 L 8924.023437 6027.994792 L 7633.984375 6027.994792 Z M 7703.971354 6130.989583 " transform="matrix(0.06,0,0,-0.06,0,595)"/>
<path style="fill-rule:nonzero;fill:rgb(78.430176%,78.430176%,71.763611%);fill-opacity:1;stroke-width:2;stroke-linecap:butt;stroke-linejoin:miter;stroke:rgb(78.430176%,78.430176%,71.763611%);stroke-opacity:1;stroke-miterlimit:10;" d="M 8924.023437 6027.994792 L 7633.984375 6027.994792 L 8924.023437 5547.981771 Z M 7633.984375 6027.994792 L 8924.023437 5547.981771 L 7308.984375 5547.981771 Z M 7633.984375 6027.994792 " transform="matrix(0.06,0,0,-0.06,0,595)"/>
<path style="fill-rule:nonzero;fill:rgb(78.430176%,78.430176%,71.763611%);fill-opacity:1;stroke-width:2;stroke-linecap:butt;stroke-linejoin:miter;stroke:rgb(78.430176%,78.430176%,71.763611%);stroke-opacity:1;stroke-miterlimit:10;" d="M 8924.023437 5547.981771 L 6725 5547.981771 L 8924.023437 5238.020833 Z M 6725 5547.981771 L 8924.023437 5238.020833 L 6455.013021 5238.020833 Z M 6725 5547.981771 " transform="matrix(0.06,0,0,-0.06,0,595)"/>
<path style="fill-rule:nonzero;fill:rgb(78.430176%,78.430176%,71.763611%);fill-opacity:1;stroke-width:2;stroke-linecap:butt;stroke-linejoin:miter;stroke:rgb(78.430176%,78.430176%,71.763611%);stroke-opacity:1;stroke-miterlimit:10;" d="M 8924.023437 5238.020833 L 6455.013021 5238.020833 L 8417.96875 5014.973958 Z M 6455.013021 5238.020833 L 8417.96875 5014.973958 L 6261.002604 5014.973958 Z M 6455.013021 5238.020833 " transform="matrix(0.06,0,0,-0.06,0,595)"/>
<path style="fill-rule:nonzero;fill:rgb(78.430176%,78.430176%,71.763611%);fill-opacity:1;stroke-width:2;stroke-linecap:butt;stroke-linejoin:miter;stroke:rgb(78.430176%,78.430176%,71.763611%);stroke-opacity:1;stroke-miterlimit:10;" d="M 8417.96875 5014.973958 L 6261.002604 5014.973958 L 7911.979167 4791.992188 Z M 6261.002604 5014.973958 L 7911.979167 4791.992188 L 5130.013021 4791.992188 Z M 6261.002604 5014.973958 " transform="matrix(0.06,0,0,-0.06,0,595)"/>
<path style="fill-rule:nonzero;fill:rgb(78.430176%,78.430176%,71.763611%);fill-opacity:1;stroke-width:2;stroke-linecap:butt;stroke-linejoin:miter;stroke:rgb(78.430176%,78.430176%,71.763611%);stroke-opacity:1;stroke-miterlimit:10;" d="M 7911.979167 4791.992188 L 5130.013021 4791.992188 L 7755.989583 4722.981771 Z M 5130.013021 4791.992188 L 7755.989583 4722.981771 L 5130.013021 4722.981771 Z M 5130.013021 4791.992188 " transform="matrix(0.06,0,0,-0.06,0,595)"/>
<path style="fill-rule:nonzero;fill:rgb(78.430176%,78.430176%,71.763611%);fill-opacity:1;stroke-width:2;stroke-linecap:butt;stroke-linejoin:miter;stroke:rgb(78.430176%,78.430176%,71.763611%);stroke-opacity:1;stroke-miterlimit:10;" d="M 7755.989583 4722.981771 L 5130.013021 4722.981771 L 7608.007812 4222.005208 Z M 5130.013021 4722.981771 L 7608.007812 4222.005208 L 5130.013021 4222.005208 Z M 5130.013021 4722.981771 " transform="matrix(0.06,0,0,-0.06,0,595)"/>
<path style="fill-rule:nonzero;fill:rgb(78.430176%,78.430176%,71.763611%);fill-opacity:1;stroke-width:2;stroke-linecap:butt;stroke-linejoin:miter;stroke:rgb(78.430176%,78.430176%,71.763611%);stroke-opacity:1;stroke-miterlimit:10;" d="M 7608.007812 4222.005208 L 5130.013021 4222.005208 L 7497.981771 3847.981771 Z M 5130.013021 4222.005208 L 7497.981771 3847.981771 L 4755.013021 3847.981771 Z M 5130.013021 4222.005208 " transform="matrix(0.06,0,0,-0.06,0,595)"/>
<path style="fill-rule:nonzero;fill:rgb(78.430176%,78.430176%,71.763611%);fill-opacity:1;stroke-width:2;stroke-linecap:butt;stroke-linejoin:miter;stroke:rgb(78.430176%,78.430176%,71.763611%);stroke-opacity:1;stroke-miterlimit:10;" d="M 7497.981771 3847.981771 L 4755.013021 3847.981771 L 7663.997396 3717.96875 Z M 4755.013021 3847.981771 L 7663.997396 3717.96875 L 4624.023437 3717.96875 Z M 4755.013021 3847.981771 " transform="matrix(0.06,0,0,-0.06,0,595)"/>
<path style="fill-rule:nonzero;fill:rgb(78.430176%,78.430176%,71.763611%);fill-opacity:1;stroke-width:2;stroke-linecap:butt;stroke-linejoin:miter;stroke:rgb(78.430176%,78.430176%,71.763611%);stroke-opacity:1;stroke-miterlimit:10;" d="M 7663.997396 3717.96875 L 4624.023437 3717.96875 L 8683.984375 2919.986979 Z M 4624.023437 3717.96875 L 8683.984375 2919.986979 L 5419.010417 2919.986979 Z M 4624.023437 3717.96875 " transform="matrix(0.06,0,0,-0.06,0,595)"/>
<path style="fill-rule:nonzero;fill:rgb(78.430176%,78.430176%,71.763611%);fill-opacity:1;stroke-width:2;stroke-linecap:butt;stroke-linejoin:miter;stroke:rgb(78.430176%,78.430176%,71.763611%);stroke-opacity:1;stroke-miterlimit:10;" d="M 6519.010417 2869.010417 L 8603.971354 2869.010417 L 7899.023437 2411.002604 Z M 6519.010417 2869.010417 " transform="matrix(0.06,0,0,-0.06,0,595)"/>
<path style="fill-rule:nonzero;fill:rgb(78.430176%,78.430176%,71.763611%);fill-opacity:1;stroke-width:2;stroke-linecap:butt;stroke-linejoin:miter;stroke:rgb(78.430176%,78.430176%,71.763611%);stroke-opacity:1;stroke-miterlimit:10;" d="M 8683.984375 2919.986979 L 5419.010417 2919.986979 L 8603.971354 2869.010417 Z M 5419.010417 2919.986979 L 8603.971354 2869.010417 L 5469.986979 2869.010417 Z M 5419.010417 2919.986979 " transform="matrix(0.06,0,0,-0.06,0,595)"/>
<path style="fill-rule:nonzero;fill:rgb(39.607239%,39.607239%,30.587769%);fill-opacity:1;stroke-width:2;stroke-linecap:butt;stroke-linejoin:miter;stroke:rgb(39.607239%,39.607239%,30.587769%);stroke-opacity:1;stroke-miterlimit:10;" d="M 8924.023437 5238.020833 L 9516.992187 4722.981771 L 7755.989583 4722.981771 Z M 8924.023437 5238.020833 " transform="matrix(0.06,0,0,-0.06,0,595)"/>
<path style="fill-rule:nonzero;fill:rgb(39.607239%,39.607239%,30.587769%);fill-opacity:1;stroke-width:2;stroke-linecap:butt;stroke-linejoin:miter;stroke:rgb(39.607239%,39.607239%,30.587769%);stroke-opacity:1;stroke-miterlimit:10;" d="M 9516.992187 4722.981771 L 7755.989583 4722.981771 L 9714.973958 4552.018229 Z M 7755.989583 4722.981771 L 9714.973958 4552.018229 L 7705.013021 4552.018229 Z M 7755.989583 4722.981771 " transform="matrix(0.06,0,0,-0.06,0,595)"/>
<path style="fill-rule:nonzero;fill:rgb(39.607239%,39.607239%,30.587769%);fill-opacity:1;stroke-width:2;stroke-linecap:butt;stroke-linejoin:miter;stroke:rgb(39.607239%,39.607239%,30.587769%);stroke-opacity:1;stroke-miterlimit:10;" d="M 9714.973958 4552.018229 L 7705.013021 4552.018229 L 9714.973958 3847.981771 Z M 7705.013021 4552.018229 L 9714.973958 3847.981771 L 7497.981771 3847.981771 Z M 7705.013021 4552.018229 " transform="matrix(0.06,0,0,-0.06,0,595)"/>
<path style="fill-rule:nonzero;fill:rgb(39.607239%,39.607239%,30.587769%);fill-opacity:1;stroke-width:2;stroke-linecap:butt;stroke-linejoin:miter;stroke:rgb(39.607239%,39.607239%,30.587769%);stroke-opacity:1;stroke-miterlimit:10;" d="M 7497.981771 3847.981771 L 7827.018229 3589.973958 L 9714.973958 3589.973958 Z M 7827.018229 3589.973958 L 9714.973958 3589.973958 L 8683.984375 2919.986979 Z M 7827.018229 3589.973958 " transform="matrix(0.06,0,0,-0.06,0,595)"/>
<path style="fill-rule:nonzero;fill:rgb(39.607239%,39.607239%,30.587769%);fill-opacity:1;stroke-width:2;stroke-linecap:butt;stroke-linejoin:miter;stroke:rgb(39.607239%,39.607239%,30.587769%);stroke-opacity:1;stroke-miterlimit:10;" d="M 7497.981771 3847.981771 L 9714.973958 3847.981771 L 9714.973958 3589.973958 Z M 7497.981771 3847.981771 " transform="matrix(0.06,0,0,-0.06,0,595)"/>
<path style="fill:none;stroke-width:24;stroke-linecap:round;stroke-linejoin:round;stroke:rgb(0%,0%,0%);stroke-opacity:1;stroke-miterlimit:10;" d="M 8374.023437 6869.986979 L 8069.986979 6671.028646 L 7703.971354 6130.989583 L 7308.984375 5547.981771 L 6725 5547.981771 L 6261.002604 5014.973958 L 5130.013021 4791.992188 L 5130.013021 4222.005208 L 4624.023437 3717.96875 L 3838.997396 4452.018229 L 4232.03125 5561.002604 L 5352.018229 5705.989583 L 5574.023437 6041.992188 L 5711.002604 6628.971354 L 6414.973958 6955.013021 L 7522.005208 7467.96875 L 8374.023437 6869.986979 L 8924.023437 6027.994792 L 8924.023437 5238.020833 L 9714.973958 4552.018229 L 9714.973958 3589.973958 L 8683.984375 2919.986979 L 7899.023437 2411.002604 L 6519.010417 2869.010417 L 5469.986979 2869.010417 L 4624.023437 3717.96875 " transform="matrix(0.06,0,0,-0.06,0,595)"/>
<path style="fill:none;stroke-width:24;stroke-linecap:round;stroke-linejoin:round;stroke:rgb(0%,0%,0%);stroke-opacity:1;stroke-miterlimit:10;" d="M 8924.023437 5238.020833 L 7755.989583 4722.981771 L 7497.981771 3847.981771 L 8683.984375 2919.986979 " transform="matrix(0.06,0,0,-0.06,0,595)"/>
<path style="fill:none;stroke-width:2;stroke-linecap:round;stroke-linejoin:round;stroke:rgb(0%,0%,0%);stroke-opacity:1;stroke-miterlimit:10;" d="M 11533.984375 0 L 11533.984375 9888.020833 L 2339.973958 9888.020833 L 2339.973958 0 " transform="matrix(0.06,0,0,-0.06,0,595)"/>
</g>
</svg>
